inDegrees=no
num_controls=7
num_derivatives=13
num_iterations=118
num_multipliers=7
num_parameters=0
num_slacks=7
num_states=26
objective=0.449547
objective_accelerations=0.012898
objective_balance=0.007108
objective_effort=0.016819
objective_height=0.411186
objective_ligament=0.001536
solver_duration=1489.729770
status=Solve_Succeeded
success=true
DataType=double
version=3
OpenSimVersion=4.5
endheader
time	/jointset/ground_pelvis/pelvis_tilt/value	/jointset/ground_pelvis/pelvis_tx/value	/jointset/ground_pelvis/pelvis_ty/value	/jointset/hip_l/hip_flexion_l/value	/jointset/hip_l/hip_adduction_l/value	/jointset/hip_l/hip_rotation_l/value	/jointset/back/lumbar_extension/value	/jointset/patellofemoral_l/patellar_flexion_l/value	/jointset/knee_l/knee_flexion_l/value	/jointset/knee_l/knee_adduction_l/value	/jointset/knee_l/knee_rotation_l/value	/jointset/ankle_l/ankle_angle_l/value	/jointset/subtalar_l/subtalar_angle_l/value	/jointset/ground_pelvis/pelvis_tilt/speed	/jointset/ground_pelvis/pelvis_tx/speed	/jointset/ground_pelvis/pelvis_ty/speed	/jointset/hip_l/hip_flexion_l/speed	/jointset/hip_l/hip_adduction_l/speed	/jointset/hip_l/hip_rotation_l/speed	/jointset/back/lumbar_extension/speed	/jointset/patellofemoral_l/patellar_flexion_l/speed	/jointset/knee_l/knee_flexion_l/speed	/jointset/knee_l/knee_adduction_l/speed	/jointset/knee_l/knee_rotation_l/speed	/jointset/ankle_l/ankle_angle_l/speed	/jointset/subtalar_l/subtalar_angle_l/speed	/forceset/tau_hip_flexion_l	/forceset/tau_hip_adduction_l	/forceset/tau_hip_rotation_l	/forceset/tau_knee_flexion_l	/forceset/tau_ankle_angle_l	/forceset/tau_subtalar_angle_l	/forceset/tau_lumbar_extension	lambda_cid13_p0	lambda_cid13_p1	lambda_cid13_p2	lambda_cid13_p3	lambda_cid13_p4	lambda_cid13_p5	lambda_cid14_p0	/jointset/ground_pelvis/pelvis_tilt/accel	/jointset/ground_pelvis/pelvis_tx/accel	/jointset/ground_pelvis/pelvis_ty/accel	/jointset/hip_l/hip_flexion_l/accel	/jointset/hip_l/hip_adduction_l/accel	/jointset/hip_l/hip_rotation_l/accel	/jointset/back/lumbar_extension/accel	/jointset/patellofemoral_l/patellar_flexion_l/accel	/jointset/knee_l/knee_flexion_l/accel	/jointset/knee_l/knee_adduction_l/accel	/jointset/knee_l/knee_rotation_l/accel	/jointset/ankle_l/ankle_angle_l/accel	/jointset/subtalar_l/subtalar_angle_l/accel	gamma_cid13_p0	gamma_cid13_p1	gamma_cid13_p2	gamma_cid13_p3	gamma_cid13_p4	gamma_cid13_p5	gamma_cid14_p0
0.5	-0.2626897890821974	0.006227993400865762	0.8628084131044876	0.689706423040405	-0.2866954052937684	-0.1926115713166732	-0.2667366185893231	0.2637535115911576	0.2637535115911621	-0.1744830983553639	0.1743375371079489	-0.01584019736357945	-0.03230566128968211	-0.2734767435851361	-0.1384085259860486	-0.1162671606717251	0.8559429602933655	-0.06129072104706995	0.219963798287004	-0.6361051328433632	0.6389133035063095	0.6389133035064677	-0.0004909085470933758	0.0006899379145992025	0.07549909064209971	-0.05036082971514902	-0.1320160759904264	0.02484352404991359	-0.01806873867488353	-0.1348749426113959	0.105482817738075	0.01623826543586958	0.145409419075403	-6.838251929973984	-11.58403047784814	7.988379775945514	3.758854365896278	-622.373528001075	-58.10651449112075	-41.88984286804541	0.1467847869468067	0.1450564530319915	-0.03954643038078377	-0.4721143208907666	0.1171828703086982	-0.1075555932683222	0.7028421091182186	-0.3389762387113551	-0.3389762387113396	0.007564655208255812	-0.009848626245987851	0.01412644477944642	0.1130533938286053	4.694909206522588e-09	-9.12390565946915e-08	1.786619453938558e-08	-8.605128349443864e-09	-1.810177266928454e-08	-2.366639246029912e-08	-9.236378029925441e-09
0.51	-0.2654168341650582	0.00485140084831705	0.8616439792760078	0.6982408798103484	-0.2873024598726798	-0.190417897656895	-0.2730616078005481	0.2701247046158109	0.2701247046158192	-0.1744877551993288	0.174344209939566	-0.01508462436506515	-0.03280363484944941	-0.2718959637862191	-0.1368865724483687	-0.1165978279067678	0.8508229467420204	-0.06010994649911847	0.2187402075721586	-0.6287969360592682	0.6352336008193535	0.6352336008194567	-0.0004320157566720426	0.0006427822362797693	0.07561114440069769	-0.04922341054382231	-0.1365924717152784	0.02622473012331535	-0.01776290860416857	-0.1339766228961385	0.1037891911701185	0.01713847467846626	0.1493109738258142	-7.410997104285038	-11.82807265011879	7.974018178591783	3.809457418903596	-623.5304437762278	-57.9214969892065	-41.86575683782839	0.169172014455929	0.1592748078284037	-0.02656349662487884	-0.5507610577764034	0.120073499858905	-0.1343791410142958	0.7591744641416077	-0.3962205860956474	-0.3962205861039257	0.006304534244506511	-0.002433906438792847	0.009090327286324593	0.1156690503651096	5.435640547286833e-09	-8.909431938640043e-08	1.518343545575125e-08	-9.361757371346178e-09	-1.413411845316327e-08	-2.263977507042278e-08	-8.719140991894982e-09
0.52	-0.2681269819623027	0.00349072983188399	0.8604768914498657	0.7067203732076731	-0.2878973969555516	-0.1882373835703497	-0.2793106418437152	0.2764563499531126	0.2764563499531201	-0.1744915725267245	0.1743503542408418	-0.01432806173178771	-0.03328991764318734	-0.2700972864636598	-0.1352242187629183	-0.1167979602041636	0.8449502857698731	-0.05886722183834131	0.2173318836404483	-0.6209140992317356	0.6310037660360798	0.6310037660361278	-0.0003230052348352247	0.000584231845402844	0.07569701759475164	-0.04802267650927897	-0.1411688674401913	0.02760593619670801	-0.01745707853342969	-0.1330783031809001	0.1020955646021574	0.0180386839210529	0.153212528576175	-7.986218677287356	-12.07149800926052	7.95934899494898	3.857031337087642	-624.7299597977732	-57.74499148001617	-41.83672941833608	0.1903642916750538	0.1731364825862589	-0.0134394428513963	-0.6226438050512038	0.1295728928738316	-0.1445022366413123	0.8177701178055956	-0.4490026579749586	-0.4490026579749369	0.01758820149133345	-0.01212756875748206	0.008890331870825011	0.1257163664719667	6.003011172864358e-09	-8.666504123988827e-08	1.288619957780813e-08	-1.001136341449584e-08	-1.042266453805891e-08	-2.152537069231418e-08	-8.268649114224737e-09
0.53	-0.2708181368984701	0.002147346916595887	0.8593084377831944	0.7151375096911964	-0.2884797381764365	-0.1860719119434849	-0.2854780300803272	0.2827429991305437	0.2827429991305661	-0.174494291130459	0.1743559514382709	-0.0135708410320872	-0.03376403060057151	-0.2681026324032967	-0.1334323364918281	-0.1168720128413882	0.8383577441509663	-0.05760581626925725	0.2157278989230339	-0.6124762683848763	0.6262341710038407	0.6262341710038563	-0.0002397684870553528	0.0005420624064442429	0.07573367677211011	-0.04680619478602138	-0.1455646220543666	0.02888012429244119	-0.01718293424395691	-0.1323322492768498	0.1005402988193036	0.01889672771719432	0.156957093815231	-8.516631773980633	-12.30417069215471	7.942638990499422	3.914082781106628	-625.8745533771593	-57.56958660520115	-41.80289632070821	0.2086771858589601	0.1852161996932419	-0.001275825456383784	-0.6954484362055559	0.123716410356265	-0.1735364457825236	0.8698815237426215	-0.504721086492504	-0.5047210864974325	0.0008201391765180529	0.000759768504440695	-0.0009629034984565631	0.1186839808279597	6.675774513745061e-09	-8.370848518956077e-08	1.021396226591115e-08	-1.071966802770083e-08	-6.419961412729057e-09	-2.046699446978191e-08	-7.694297784278612e-09
0.54	-0.2734884130494972	0.0008224832440835868	0.8581398660598912	0.7234851429393503	-0.2890496069373485	-0.1839235181350918	-0.2915584216173476	0.288979195725525	0.2889791957255557	-0.1744967516211603	0.1743613312213058	-0.01281365706344648	-0.03422616475960803	-0.2659215294372811	-0.1315203702077579	-0.1168215715305411	0.831049638696251	-0.05637272984294715	0.2139163199459806	-0.6035147593133748	0.6209132495458365	0.6209132495458192	-0.0002713826290689906	0.0005407489662630077	0.07568967138279793	-0.04562691683975122	-0.1499603766685966	0.03015431238816891	-0.0169087899544792	-0.1315861953728111	0.09898503303644819	0.01975477151333005	0.1607016590542392	-9.050070499625347	-12.53628518106119	7.925807551309501	3.96897899012651	-627.0702304650299	-57.40343417807777	-41.76442714819967	0.2276540728053515	0.1971532851824106	0.01145934676295983	-0.7657565722129567	0.1239090643190348	-0.1860210885690717	0.9225057627339426	-0.5592679431280271	-0.5592679431280529	-0.005381976467387512	-0.003956369002007166	-0.007242581463136287	0.1182756110745136	7.465142560918643e-09	-8.016855784139499e-08	7.126829750490721e-09	-1.149291573969042e-08	-2.095025118639066e-09	-1.947060684490857e-08	-6.98291046458045e-09
